<mxfile host="Electron" modified="2024-03-02T00:21:35.718Z" agent="Mozilla/5.0 (Windows NT 10.0; Win64; x64) AppleWebKit/537.36 (KHTML, like Gecko) draw.io/21.5.1 Chrome/112.0.5615.204 Electron/24.6.0 Safari/537.36" etag="yqDS7mURZHuWwHzCNOXT" version="21.5.1" type="device">
  <diagram name="第 1 页" id="GkGCMnR6sdRVVp03Skyp">
    <mxGraphModel dx="1833" dy="626" grid="1" gridSize="10" guides="1" tooltips="1" connect="1" arrows="1" fold="1" page="1" pageScale="1" pageWidth="827" pageHeight="1169" math="0" shadow="0">
      <root>
        <mxCell id="0" />
        <mxCell id="1" parent="0" />
        <mxCell id="Xx0M9fznetZ1DYpD6WUG-320" value="应用层" style="rounded=1;whiteSpace=wrap;html=1;container=0;fillColor=#dae8fc;strokeColor=#6c8ebf;fontSize=14;labelBorderColor=none;labelBackgroundColor=none;" parent="1" vertex="1">
          <mxGeometry x="-50" y="90" width="100" height="40" as="geometry">
            <mxRectangle x="-50" y="90" width="50" height="40" as="alternateBounds" />
          </mxGeometry>
        </mxCell>
        <mxCell id="Xx0M9fznetZ1DYpD6WUG-321" value="表示层" style="rounded=1;whiteSpace=wrap;html=1;container=0;fillColor=#dae8fc;strokeColor=#6c8ebf;fontSize=14;labelBorderColor=none;labelBackgroundColor=none;" parent="1" vertex="1">
          <mxGeometry x="-50" y="170" width="100" height="40" as="geometry">
            <mxRectangle x="-50" y="170" width="50" height="40" as="alternateBounds" />
          </mxGeometry>
        </mxCell>
        <mxCell id="Xx0M9fznetZ1DYpD6WUG-322" value="会话层" style="rounded=1;whiteSpace=wrap;html=1;container=0;fillColor=#dae8fc;strokeColor=#6c8ebf;fontSize=14;labelBorderColor=none;labelBackgroundColor=none;" parent="1" vertex="1">
          <mxGeometry x="-50" y="250" width="100" height="40" as="geometry">
            <mxRectangle x="-50" y="250" width="50" height="40" as="alternateBounds" />
          </mxGeometry>
        </mxCell>
        <mxCell id="Xx0M9fznetZ1DYpD6WUG-323" value="传输层" style="rounded=1;whiteSpace=wrap;html=1;container=0;fillColor=#dae8fc;strokeColor=#6c8ebf;fontSize=14;labelBorderColor=none;labelBackgroundColor=none;" parent="1" vertex="1">
          <mxGeometry x="-50" y="330" width="100" height="40" as="geometry">
            <mxRectangle x="-50" y="90" width="50" height="40" as="alternateBounds" />
          </mxGeometry>
        </mxCell>
        <mxCell id="Xx0M9fznetZ1DYpD6WUG-324" value="网络层" style="rounded=1;whiteSpace=wrap;html=1;container=0;fillColor=#dae8fc;strokeColor=#6c8ebf;fontSize=14;labelBorderColor=none;labelBackgroundColor=none;" parent="1" vertex="1">
          <mxGeometry x="-50" y="410" width="100" height="40" as="geometry">
            <mxRectangle x="-50" y="90" width="50" height="40" as="alternateBounds" />
          </mxGeometry>
        </mxCell>
        <mxCell id="Xx0M9fznetZ1DYpD6WUG-325" value="数据链路层" style="rounded=1;whiteSpace=wrap;html=1;container=0;fillColor=#dae8fc;strokeColor=#6c8ebf;fontSize=14;labelBorderColor=none;labelBackgroundColor=none;" parent="1" vertex="1">
          <mxGeometry x="-50" y="490" width="100" height="40" as="geometry">
            <mxRectangle x="-50" y="90" width="50" height="40" as="alternateBounds" />
          </mxGeometry>
        </mxCell>
        <mxCell id="Xx0M9fznetZ1DYpD6WUG-326" value="物理层" style="rounded=1;whiteSpace=wrap;html=1;container=0;fillColor=#dae8fc;strokeColor=#6c8ebf;fontSize=14;labelBorderColor=none;labelBackgroundColor=none;" parent="1" vertex="1">
          <mxGeometry x="-50" y="570" width="100" height="40" as="geometry">
            <mxRectangle x="-50" y="90" width="50" height="40" as="alternateBounds" />
          </mxGeometry>
        </mxCell>
        <mxCell id="Xx0M9fznetZ1DYpD6WUG-347" value="" style="endArrow=classic;startArrow=classic;html=1;rounded=1;exitX=0.5;exitY=0;exitDx=0;exitDy=0;shadow=0;fillColor=#dae8fc;strokeColor=#6c8ebf;fontSize=14;labelBorderColor=none;labelBackgroundColor=none;" parent="1" source="Xx0M9fznetZ1DYpD6WUG-321" edge="1">
          <mxGeometry width="50" height="50" relative="1" as="geometry">
            <mxPoint x="-50" y="180" as="sourcePoint" />
            <mxPoint y="130" as="targetPoint" />
          </mxGeometry>
        </mxCell>
        <mxCell id="Xx0M9fznetZ1DYpD6WUG-348" value="" style="endArrow=classic;startArrow=classic;html=1;rounded=1;exitX=0.5;exitY=0;exitDx=0;exitDy=0;fillColor=#dae8fc;strokeColor=#6c8ebf;fontSize=14;labelBorderColor=none;labelBackgroundColor=none;" parent="1" edge="1">
          <mxGeometry width="50" height="50" relative="1" as="geometry">
            <mxPoint x="-1" y="250" as="sourcePoint" />
            <mxPoint x="-1" y="210" as="targetPoint" />
          </mxGeometry>
        </mxCell>
        <mxCell id="Xx0M9fznetZ1DYpD6WUG-349" value="" style="endArrow=classic;startArrow=classic;html=1;rounded=1;exitX=0.5;exitY=0;exitDx=0;exitDy=0;fillColor=#dae8fc;strokeColor=#6c8ebf;fontSize=14;labelBorderColor=none;labelBackgroundColor=none;" parent="1" edge="1">
          <mxGeometry width="50" height="50" relative="1" as="geometry">
            <mxPoint x="-1" y="330" as="sourcePoint" />
            <mxPoint x="-1" y="290" as="targetPoint" />
          </mxGeometry>
        </mxCell>
        <mxCell id="Xx0M9fznetZ1DYpD6WUG-350" value="" style="endArrow=classic;startArrow=classic;html=1;rounded=1;exitX=0.5;exitY=0;exitDx=0;exitDy=0;fillColor=#dae8fc;strokeColor=#6c8ebf;fontSize=14;labelBorderColor=none;labelBackgroundColor=none;" parent="1" edge="1">
          <mxGeometry width="50" height="50" relative="1" as="geometry">
            <mxPoint x="-1" y="410" as="sourcePoint" />
            <mxPoint x="-1" y="370" as="targetPoint" />
          </mxGeometry>
        </mxCell>
        <mxCell id="Xx0M9fznetZ1DYpD6WUG-351" value="" style="endArrow=classic;startArrow=classic;html=1;rounded=1;exitX=0.5;exitY=0;exitDx=0;exitDy=0;fillColor=#dae8fc;strokeColor=#6c8ebf;fontSize=14;labelBorderColor=none;labelBackgroundColor=none;" parent="1" edge="1">
          <mxGeometry width="50" height="50" relative="1" as="geometry">
            <mxPoint y="490" as="sourcePoint" />
            <mxPoint y="450" as="targetPoint" />
          </mxGeometry>
        </mxCell>
        <mxCell id="Xx0M9fznetZ1DYpD6WUG-352" value="" style="endArrow=classic;startArrow=classic;html=1;rounded=1;fillColor=#dae8fc;strokeColor=#6c8ebf;fontSize=14;labelBorderColor=none;labelBackgroundColor=none;" parent="1" edge="1">
          <mxGeometry width="50" height="50" relative="1" as="geometry">
            <mxPoint y="570" as="sourcePoint" />
            <mxPoint y="530" as="targetPoint" />
          </mxGeometry>
        </mxCell>
        <mxCell id="Xx0M9fznetZ1DYpD6WUG-353" value="" style="endArrow=classic;startArrow=classic;html=1;rounded=1;dashed=1;fillColor=#dae8fc;strokeColor=#6c8ebf;" parent="1" edge="1">
          <mxGeometry width="50" height="50" relative="1" as="geometry">
            <mxPoint x="280" y="110" as="sourcePoint" />
            <mxPoint x="50" y="110" as="targetPoint" />
          </mxGeometry>
        </mxCell>
        <mxCell id="Xx0M9fznetZ1DYpD6WUG-354" value="" style="endArrow=classic;startArrow=classic;html=1;rounded=1;dashed=1;fillColor=#dae8fc;strokeColor=#6c8ebf;" parent="1" edge="1">
          <mxGeometry width="50" height="50" relative="1" as="geometry">
            <mxPoint x="280" y="509.58" as="sourcePoint" />
            <mxPoint x="50" y="509.58" as="targetPoint" />
          </mxGeometry>
        </mxCell>
        <mxCell id="Xx0M9fznetZ1DYpD6WUG-355" value="" style="endArrow=classic;startArrow=classic;html=1;rounded=1;dashed=1;fillColor=#dae8fc;strokeColor=#6c8ebf;" parent="1" edge="1">
          <mxGeometry width="50" height="50" relative="1" as="geometry">
            <mxPoint x="280" y="429.58" as="sourcePoint" />
            <mxPoint x="50" y="429.58" as="targetPoint" />
          </mxGeometry>
        </mxCell>
        <mxCell id="Xx0M9fznetZ1DYpD6WUG-356" value="" style="endArrow=classic;startArrow=classic;html=1;rounded=1;dashed=1;fillColor=#dae8fc;strokeColor=#6c8ebf;" parent="1" edge="1">
          <mxGeometry width="50" height="50" relative="1" as="geometry">
            <mxPoint x="280" y="349.58000000000004" as="sourcePoint" />
            <mxPoint x="50" y="349.58000000000004" as="targetPoint" />
          </mxGeometry>
        </mxCell>
        <mxCell id="Xx0M9fznetZ1DYpD6WUG-357" value="" style="endArrow=classic;startArrow=classic;html=1;rounded=1;dashed=1;fillColor=#dae8fc;strokeColor=#6c8ebf;" parent="1" edge="1">
          <mxGeometry width="50" height="50" relative="1" as="geometry">
            <mxPoint x="280" y="269.58" as="sourcePoint" />
            <mxPoint x="50" y="269.58" as="targetPoint" />
          </mxGeometry>
        </mxCell>
        <mxCell id="Xx0M9fznetZ1DYpD6WUG-358" value="" style="endArrow=classic;startArrow=classic;html=1;rounded=1;dashed=1;fillColor=#dae8fc;strokeColor=#6c8ebf;" parent="1" edge="1">
          <mxGeometry width="50" height="50" relative="1" as="geometry">
            <mxPoint x="280" y="189.57999999999998" as="sourcePoint" />
            <mxPoint x="50" y="189.57999999999998" as="targetPoint" />
          </mxGeometry>
        </mxCell>
        <mxCell id="Xx0M9fznetZ1DYpD6WUG-359" value="" style="endArrow=classic;startArrow=classic;html=1;rounded=1;dashed=1;fillColor=#dae8fc;strokeColor=#6c8ebf;" parent="1" edge="1">
          <mxGeometry width="50" height="50" relative="1" as="geometry">
            <mxPoint x="280" y="589.5799999999999" as="sourcePoint" />
            <mxPoint x="50" y="589.5799999999999" as="targetPoint" />
          </mxGeometry>
        </mxCell>
        <mxCell id="Xx0M9fznetZ1DYpD6WUG-376" value="&lt;b&gt;&lt;font style=&quot;font-size: 16px;&quot;&gt;OSI参考模型&lt;/font&gt;&lt;/b&gt;" style="text;html=1;align=center;verticalAlign=middle;resizable=0;points=[];autosize=1;strokeColor=none;fillColor=none;rounded=1;" parent="1" vertex="1">
          <mxGeometry x="100" y="630" width="120" height="30" as="geometry" />
        </mxCell>
        <mxCell id="Xx0M9fznetZ1DYpD6WUG-377" value="应用层" style="rounded=1;whiteSpace=wrap;html=1;container=0;fillColor=#dae8fc;strokeColor=#6c8ebf;fontSize=14;labelBorderColor=none;labelBackgroundColor=none;" parent="1" vertex="1">
          <mxGeometry x="280" y="90" width="100" height="40" as="geometry">
            <mxRectangle x="-50" y="90" width="50" height="40" as="alternateBounds" />
          </mxGeometry>
        </mxCell>
        <mxCell id="Xx0M9fznetZ1DYpD6WUG-378" value="表示层" style="rounded=1;whiteSpace=wrap;html=1;container=0;fillColor=#dae8fc;strokeColor=#6c8ebf;fontSize=14;labelBorderColor=none;labelBackgroundColor=none;" parent="1" vertex="1">
          <mxGeometry x="280" y="170" width="100" height="40" as="geometry">
            <mxRectangle x="-50" y="170" width="50" height="40" as="alternateBounds" />
          </mxGeometry>
        </mxCell>
        <mxCell id="Xx0M9fznetZ1DYpD6WUG-379" value="会话层" style="rounded=1;whiteSpace=wrap;html=1;container=0;fillColor=#dae8fc;strokeColor=#6c8ebf;fontSize=14;labelBorderColor=none;labelBackgroundColor=none;" parent="1" vertex="1">
          <mxGeometry x="280" y="250" width="100" height="40" as="geometry">
            <mxRectangle x="-50" y="250" width="50" height="40" as="alternateBounds" />
          </mxGeometry>
        </mxCell>
        <mxCell id="Xx0M9fznetZ1DYpD6WUG-380" value="传输层" style="rounded=1;whiteSpace=wrap;html=1;container=0;fillColor=#dae8fc;strokeColor=#6c8ebf;fontSize=14;labelBorderColor=none;labelBackgroundColor=none;" parent="1" vertex="1">
          <mxGeometry x="280" y="330" width="100" height="40" as="geometry">
            <mxRectangle x="-50" y="90" width="50" height="40" as="alternateBounds" />
          </mxGeometry>
        </mxCell>
        <mxCell id="Xx0M9fznetZ1DYpD6WUG-381" value="网络层" style="rounded=1;whiteSpace=wrap;html=1;container=0;fillColor=#dae8fc;strokeColor=#6c8ebf;fontSize=14;labelBorderColor=none;labelBackgroundColor=none;" parent="1" vertex="1">
          <mxGeometry x="280" y="410" width="100" height="40" as="geometry">
            <mxRectangle x="-50" y="90" width="50" height="40" as="alternateBounds" />
          </mxGeometry>
        </mxCell>
        <mxCell id="Xx0M9fznetZ1DYpD6WUG-382" value="数据链路层" style="rounded=1;whiteSpace=wrap;html=1;container=0;fillColor=#dae8fc;strokeColor=#6c8ebf;fontSize=14;labelBorderColor=none;labelBackgroundColor=none;" parent="1" vertex="1">
          <mxGeometry x="280" y="490" width="100" height="40" as="geometry">
            <mxRectangle x="-50" y="90" width="50" height="40" as="alternateBounds" />
          </mxGeometry>
        </mxCell>
        <mxCell id="Xx0M9fznetZ1DYpD6WUG-383" value="物理层" style="rounded=1;whiteSpace=wrap;html=1;container=0;fillColor=#dae8fc;strokeColor=#6c8ebf;fontSize=14;labelBorderColor=none;labelBackgroundColor=none;" parent="1" vertex="1">
          <mxGeometry x="280" y="570" width="100" height="40" as="geometry">
            <mxRectangle x="-50" y="90" width="50" height="40" as="alternateBounds" />
          </mxGeometry>
        </mxCell>
        <mxCell id="Xx0M9fznetZ1DYpD6WUG-384" value="" style="endArrow=classic;startArrow=classic;html=1;rounded=1;exitX=0.5;exitY=0;exitDx=0;exitDy=0;shadow=0;fillColor=#dae8fc;strokeColor=#6c8ebf;fontSize=14;labelBorderColor=none;labelBackgroundColor=none;" parent="1" source="Xx0M9fznetZ1DYpD6WUG-378" edge="1">
          <mxGeometry width="50" height="50" relative="1" as="geometry">
            <mxPoint x="280" y="180" as="sourcePoint" />
            <mxPoint x="330" y="130" as="targetPoint" />
          </mxGeometry>
        </mxCell>
        <mxCell id="Xx0M9fznetZ1DYpD6WUG-385" value="" style="endArrow=classic;startArrow=classic;html=1;rounded=1;exitX=0.5;exitY=0;exitDx=0;exitDy=0;fillColor=#dae8fc;strokeColor=#6c8ebf;fontSize=14;labelBorderColor=none;labelBackgroundColor=none;" parent="1" edge="1">
          <mxGeometry width="50" height="50" relative="1" as="geometry">
            <mxPoint x="329" y="250" as="sourcePoint" />
            <mxPoint x="329" y="210" as="targetPoint" />
          </mxGeometry>
        </mxCell>
        <mxCell id="Xx0M9fznetZ1DYpD6WUG-386" value="" style="endArrow=classic;startArrow=classic;html=1;rounded=1;exitX=0.5;exitY=0;exitDx=0;exitDy=0;fillColor=#dae8fc;strokeColor=#6c8ebf;fontSize=14;labelBorderColor=none;labelBackgroundColor=none;" parent="1" edge="1">
          <mxGeometry width="50" height="50" relative="1" as="geometry">
            <mxPoint x="329" y="330" as="sourcePoint" />
            <mxPoint x="329" y="290" as="targetPoint" />
          </mxGeometry>
        </mxCell>
        <mxCell id="Xx0M9fznetZ1DYpD6WUG-387" value="" style="endArrow=classic;startArrow=classic;html=1;rounded=1;exitX=0.5;exitY=0;exitDx=0;exitDy=0;fillColor=#dae8fc;strokeColor=#6c8ebf;fontSize=14;labelBorderColor=none;labelBackgroundColor=none;" parent="1" edge="1">
          <mxGeometry width="50" height="50" relative="1" as="geometry">
            <mxPoint x="329" y="410" as="sourcePoint" />
            <mxPoint x="329" y="370" as="targetPoint" />
          </mxGeometry>
        </mxCell>
        <mxCell id="Xx0M9fznetZ1DYpD6WUG-388" value="" style="endArrow=classic;startArrow=classic;html=1;rounded=1;exitX=0.5;exitY=0;exitDx=0;exitDy=0;fillColor=#dae8fc;strokeColor=#6c8ebf;fontSize=14;labelBorderColor=none;labelBackgroundColor=none;" parent="1" edge="1">
          <mxGeometry width="50" height="50" relative="1" as="geometry">
            <mxPoint x="330" y="490" as="sourcePoint" />
            <mxPoint x="330" y="450" as="targetPoint" />
          </mxGeometry>
        </mxCell>
        <mxCell id="Xx0M9fznetZ1DYpD6WUG-389" value="" style="endArrow=classic;startArrow=classic;html=1;rounded=1;fillColor=#dae8fc;strokeColor=#6c8ebf;fontSize=14;labelBorderColor=none;labelBackgroundColor=none;" parent="1" edge="1">
          <mxGeometry width="50" height="50" relative="1" as="geometry">
            <mxPoint x="330" y="570" as="sourcePoint" />
            <mxPoint x="330" y="530" as="targetPoint" />
          </mxGeometry>
        </mxCell>
        <mxCell id="Xx0M9fznetZ1DYpD6WUG-390" value="&lt;b&gt;交换单元名称&lt;/b&gt;" style="text;html=1;align=center;verticalAlign=middle;resizable=0;points=[];autosize=1;strokeColor=none;fillColor=none;rounded=1;" parent="1" vertex="1">
          <mxGeometry x="380" y="60" width="100" height="30" as="geometry" />
        </mxCell>
        <mxCell id="Xx0M9fznetZ1DYpD6WUG-391" value="ADPU" style="text;html=1;align=center;verticalAlign=middle;resizable=0;points=[];autosize=1;strokeColor=none;fillColor=none;rounded=1;" parent="1" vertex="1">
          <mxGeometry x="400" y="95" width="60" height="30" as="geometry" />
        </mxCell>
        <mxCell id="Xx0M9fznetZ1DYpD6WUG-392" value="PPDU" style="text;html=1;align=center;verticalAlign=middle;resizable=0;points=[];autosize=1;strokeColor=none;fillColor=none;rounded=1;" parent="1" vertex="1">
          <mxGeometry x="400" y="175" width="60" height="30" as="geometry" />
        </mxCell>
        <mxCell id="Xx0M9fznetZ1DYpD6WUG-393" value="SPDU" style="text;html=1;align=center;verticalAlign=middle;resizable=0;points=[];autosize=1;strokeColor=none;fillColor=none;rounded=1;" parent="1" vertex="1">
          <mxGeometry x="400" y="255" width="60" height="30" as="geometry" />
        </mxCell>
        <mxCell id="Xx0M9fznetZ1DYpD6WUG-394" value="&lt;font color=&quot;#ff3333&quot;&gt;段segment/消息message&lt;/font&gt;" style="text;html=1;align=center;verticalAlign=middle;resizable=0;points=[];autosize=1;strokeColor=none;fillColor=none;rounded=1;" parent="1" vertex="1">
          <mxGeometry x="350" y="335" width="160" height="30" as="geometry" />
        </mxCell>
        <mxCell id="Xx0M9fznetZ1DYpD6WUG-395" value="&lt;font color=&quot;#ff3333&quot;&gt;数据包packet&lt;/font&gt;" style="text;html=1;align=center;verticalAlign=middle;resizable=0;points=[];autosize=1;strokeColor=none;fillColor=none;rounded=1;" parent="1" vertex="1">
          <mxGeometry x="385" y="415" width="90" height="30" as="geometry" />
        </mxCell>
        <mxCell id="Xx0M9fznetZ1DYpD6WUG-396" value="&lt;font color=&quot;#ff3333&quot;&gt;帧Frame&lt;/font&gt;" style="text;html=1;align=center;verticalAlign=middle;resizable=0;points=[];autosize=1;strokeColor=none;fillColor=none;rounded=1;" parent="1" vertex="1">
          <mxGeometry x="395" y="495" width="70" height="30" as="geometry" />
        </mxCell>
        <mxCell id="Xx0M9fznetZ1DYpD6WUG-397" value="&lt;font color=&quot;#ff3333&quot;&gt;比特流BitTorrent&lt;/font&gt;" style="text;html=1;align=center;verticalAlign=middle;resizable=0;points=[];autosize=1;strokeColor=none;fillColor=none;rounded=1;" parent="1" vertex="1">
          <mxGeometry x="375" y="575" width="110" height="30" as="geometry" />
        </mxCell>
        <mxCell id="Xx0M9fznetZ1DYpD6WUG-398" value="&lt;b&gt;层&lt;/b&gt;" style="text;html=1;align=center;verticalAlign=middle;resizable=0;points=[];autosize=1;strokeColor=none;fillColor=none;rounded=1;" parent="1" vertex="1">
          <mxGeometry x="-100" y="60" width="40" height="30" as="geometry" />
        </mxCell>
        <mxCell id="Xx0M9fznetZ1DYpD6WUG-399" value="1" style="text;html=1;align=center;verticalAlign=middle;resizable=0;points=[];autosize=1;strokeColor=none;fillColor=none;rounded=1;" parent="1" vertex="1">
          <mxGeometry x="-95" y="575" width="30" height="30" as="geometry" />
        </mxCell>
        <mxCell id="Xx0M9fznetZ1DYpD6WUG-400" value="2" style="text;html=1;align=center;verticalAlign=middle;resizable=0;points=[];autosize=1;strokeColor=none;fillColor=none;rounded=1;" parent="1" vertex="1">
          <mxGeometry x="-95" y="495" width="30" height="30" as="geometry" />
        </mxCell>
        <mxCell id="Xx0M9fznetZ1DYpD6WUG-401" value="3" style="text;html=1;align=center;verticalAlign=middle;resizable=0;points=[];autosize=1;strokeColor=none;fillColor=none;rounded=1;" parent="1" vertex="1">
          <mxGeometry x="-95" y="415" width="30" height="30" as="geometry" />
        </mxCell>
        <mxCell id="Xx0M9fznetZ1DYpD6WUG-402" value="4" style="text;html=1;align=center;verticalAlign=middle;resizable=0;points=[];autosize=1;strokeColor=none;fillColor=none;rounded=1;" parent="1" vertex="1">
          <mxGeometry x="-95" y="335" width="30" height="30" as="geometry" />
        </mxCell>
        <mxCell id="Xx0M9fznetZ1DYpD6WUG-403" value="5" style="text;html=1;align=center;verticalAlign=middle;resizable=0;points=[];autosize=1;strokeColor=none;fillColor=none;rounded=1;" parent="1" vertex="1">
          <mxGeometry x="-95" y="255" width="30" height="30" as="geometry" />
        </mxCell>
        <mxCell id="Xx0M9fznetZ1DYpD6WUG-404" value="6" style="text;html=1;align=center;verticalAlign=middle;resizable=0;points=[];autosize=1;strokeColor=none;fillColor=none;rounded=1;" parent="1" vertex="1">
          <mxGeometry x="-95" y="175" width="30" height="30" as="geometry" />
        </mxCell>
        <mxCell id="Xx0M9fznetZ1DYpD6WUG-406" value="7" style="text;html=1;align=center;verticalAlign=middle;resizable=0;points=[];autosize=1;strokeColor=none;fillColor=none;rounded=1;" parent="1" vertex="1">
          <mxGeometry x="-95" y="95" width="30" height="30" as="geometry" />
        </mxCell>
        <mxCell id="Xx0M9fznetZ1DYpD6WUG-407" value="应用层协议" style="text;html=1;align=center;verticalAlign=middle;resizable=0;points=[];autosize=1;strokeColor=none;fillColor=none;rounded=1;" parent="1" vertex="1">
          <mxGeometry x="120" y="90" width="80" height="30" as="geometry" />
        </mxCell>
        <mxCell id="Xx0M9fznetZ1DYpD6WUG-408" value="表示层协议" style="text;html=1;align=center;verticalAlign=middle;resizable=0;points=[];autosize=1;strokeColor=none;fillColor=none;rounded=1;" parent="1" vertex="1">
          <mxGeometry x="120" y="168" width="80" height="30" as="geometry" />
        </mxCell>
        <mxCell id="Xx0M9fznetZ1DYpD6WUG-409" value="会话层协议" style="text;html=1;align=center;verticalAlign=middle;resizable=0;points=[];autosize=1;strokeColor=none;fillColor=none;rounded=1;" parent="1" vertex="1">
          <mxGeometry x="120" y="248" width="80" height="30" as="geometry" />
        </mxCell>
        <mxCell id="Xx0M9fznetZ1DYpD6WUG-410" value="传输层协议" style="text;html=1;align=center;verticalAlign=middle;resizable=0;points=[];autosize=1;strokeColor=none;fillColor=none;rounded=1;" parent="1" vertex="1">
          <mxGeometry x="120" y="328" width="80" height="30" as="geometry" />
        </mxCell>
        <mxCell id="Xx0M9fznetZ1DYpD6WUG-411" value="接口" style="text;html=1;align=center;verticalAlign=middle;resizable=0;points=[];autosize=1;strokeColor=none;fillColor=none;rounded=1;" parent="1" vertex="1">
          <mxGeometry x="-50" y="138" width="50" height="30" as="geometry" />
        </mxCell>
        <mxCell id="Xx0M9fznetZ1DYpD6WUG-412" value="主机A" style="text;html=1;align=center;verticalAlign=middle;resizable=0;points=[];autosize=1;strokeColor=none;fillColor=none;rounded=1;" parent="1" vertex="1">
          <mxGeometry x="-30" y="610" width="60" height="30" as="geometry" />
        </mxCell>
        <mxCell id="Xx0M9fznetZ1DYpD6WUG-413" value="主机B" style="text;html=1;align=center;verticalAlign=middle;resizable=0;points=[];autosize=1;strokeColor=none;fillColor=none;rounded=1;" parent="1" vertex="1">
          <mxGeometry x="300" y="610" width="60" height="30" as="geometry" />
        </mxCell>
        <mxCell id="Xx0M9fznetZ1DYpD6WUG-416" value="" style="rounded=1;whiteSpace=wrap;html=1;strokeWidth=2;opacity=50;movable=1;resizable=1;rotatable=1;deletable=1;editable=1;locked=0;connectable=1;strokeColor=#3399FF;dashed=1;" parent="1" vertex="1">
          <mxGeometry x="70" y="400" width="190" height="220" as="geometry" />
        </mxCell>
        <mxCell id="Xx0M9fznetZ1DYpD6WUG-419" value="内部子网协议" style="text;html=1;align=center;verticalAlign=middle;resizable=0;points=[];autosize=1;strokeColor=none;fillColor=none;" parent="1" vertex="1">
          <mxGeometry x="115" y="380" width="100" height="30" as="geometry" />
        </mxCell>
        <mxCell id="Xx0M9fznetZ1DYpD6WUG-421" value="网络层主机-路由器协议" style="text;html=1;align=center;verticalAlign=middle;resizable=0;points=[];autosize=1;strokeColor=none;fillColor=none;" parent="1" vertex="1">
          <mxGeometry x="90" y="410" width="150" height="30" as="geometry" />
        </mxCell>
        <mxCell id="Xx0M9fznetZ1DYpD6WUG-422" value="数据链路层主机-路由器协议" style="text;html=1;align=center;verticalAlign=middle;resizable=0;points=[];autosize=1;strokeColor=none;fillColor=none;" parent="1" vertex="1">
          <mxGeometry x="85" y="490" width="170" height="30" as="geometry" />
        </mxCell>
        <mxCell id="Xx0M9fznetZ1DYpD6WUG-423" value="物理层主机-路由器协议" style="text;html=1;align=center;verticalAlign=middle;resizable=0;points=[];autosize=1;strokeColor=none;fillColor=none;" parent="1" vertex="1">
          <mxGeometry x="95" y="570" width="150" height="30" as="geometry" />
        </mxCell>
      </root>
    </mxGraphModel>
  </diagram>
</mxfile>
